<?xml version="1.0" standalone="no"?>
<!DOCTYPE svg PUBLIC "-//W3C//DTD SVG 20010904//EN"
 "http://www.w3.org/TR/2001/REC-SVG-20010904/DTD/svg10.dtd">
<svg version="1.0" xmlns="http://www.w3.org/2000/svg"
 width="2531.000000pt" height="2531.000000pt" viewBox="0 0 2531.000000 2531.000000"
 preserveAspectRatio="xMidYMid meet">
<metadata>
Created by potrace 1.11, written by Peter Selinger 2001-2013
</metadata>
<g transform="translate(0.000000,2531.000000) scale(0.100000,-0.100000)"
fill="#000000" stroke="none">
<path d="M12130 25300 c-58 -4 -162 -10 -231 -14 -697 -33 -1567 -167 -2324
-357 -1632 -409 -3161 -1143 -4530 -2173 -898 -675 -1780 -1554 -2453 -2443
-66 -87 -129 -169 -140 -183 -88 -113 -398 -570 -526 -774 -976 -1559 -1592
-3284 -1825 -5111 -85 -661 -125 -1594 -91 -2100 5 -82 17 -260 26 -395 79
-1240 389 -2590 867 -3775 176 -436 396 -911 574 -1235 16 -30 52 -95 78 -145
195 -361 527 -890 799 -1270 214 -299 569 -749 762 -965 17 -19 57 -64 89
-100 214 -240 615 -651 820 -840 1525 -1413 3275 -2399 5235 -2949 1301 -365
2769 -526 4070 -446 1207 75 2267 277 3338 639 2147 725 4047 2003 5553 3736
460 530 901 1138 1282 1770 323 536 648 1188 885 1776 522 1296 812 2603 897
4034 40 685 15 1462 -71 2170 -152 1261 -483 2470 -987 3605 -95 214 -116 259
-249 525 -733 1469 -1731 2767 -2973 3866 -1204 1066 -2655 1918 -4175 2452
-140 49 -264 91 -275 94 -11 3 -108 33 -215 66 -729 226 -1544 394 -2320 477
-267 28 -418 41 -605 50 -66 4 -140 9 -165 12 -80 8 -1012 11 -1120 3z m1215
-465 c33 -3 125 -10 205 -16 1626 -116 3282 -590 4724 -1351 1117 -590 2061
-1284 2947 -2168 519 -517 891 -952 1324 -1550 827 -1142 1499 -2555 1859
-3910 8 -30 28 -107 45 -170 39 -148 121 -520 160 -725 104 -549 174 -1140
199 -1670 12 -260 8 -1111 -6 -1325 -89 -1354 -354 -2541 -845 -3785 -31 -77
-66 -165 -80 -195 -13 -30 -60 -136 -103 -235 -78 -179 -321 -673 -410 -835
-686 -1249 -1496 -2283 -2535 -3236 -468 -430 -1093 -909 -1634 -1254 -1811
-1155 -3841 -1805 -5955 -1908 -199 -9 -996 -9 -1205 0 -884 41 -1801 190
-2685 439 -249 70 -314 89 -535 163 -702 236 -1315 501 -1950 844 -192 104
-279 154 -576 332 -366 220 -820 538 -1219 855 -763 606 -1508 1362 -2080
2110 -46 61 -105 137 -130 170 -25 33 -110 151 -188 261 -829 1181 -1430 2461
-1802 3839 -304 1127 -444 2317 -410 3495 6 190 12 363 14 385 3 22 7 87 11
145 9 157 51 560 80 775 138 1025 416 2049 815 3009 48 116 99 236 113 266 14
30 49 107 77 170 79 174 261 532 377 745 1729 3149 4762 5392 8258 6104 560
114 1138 189 1735 226 221 13 1260 14 1405 0z"/>
<path d="M12400 23937 c-3 -3 -62 -7 -130 -8 -350 -5 -917 -60 -1380 -135
-2869 -461 -5455 -2036 -7217 -4394 -703 -942 -1252 -1987 -1634 -3110 -627
-1841 -756 -3886 -368 -5805 243 -1203 699 -2396 1309 -3430 136 -229 171
-286 308 -495 302 -460 685 -959 1022 -1331 14 -15 70 -77 125 -138 134 -149
522 -533 720 -712 1171 -1061 2564 -1871 4055 -2357 2654 -865 5552 -707 8085
440 602 273 1169 593 1725 972 156 106 170 117 390 281 662 496 1281 1078
1831 1720 570 666 1087 1446 1493 2255 853 1694 1257 3586 1176 5495 -57 1319
-343 2609 -850 3830 -208 499 -533 1130 -822 1593 -375 601 -802 1164 -1281
1687 -160 175 -577 589 -755 748 -1128 1013 -2385 1761 -3814 2268 -79 28
-163 57 -188 64 -25 8 -97 30 -160 50 -842 266 -1805 445 -2640 490 -63 4
-137 8 -165 10 -95 8 -830 18 -835 12z m-30 -1597 c118 -6 285 -17 370 -26
1210 -119 2415 -601 3589 -1436 l60 -43 1 -651 c0 -358 3 -942 7 -1297 4 -444
3 -647 -4 -647 -6 0 -59 53 -119 118 -159 171 -528 525 -683 653 -367 304
-719 538 -1093 724 -369 184 -709 299 -1065 360 -269 47 -422 57 -733 52 -288
-5 -424 -18 -630 -63 -1088 -235 -1781 -976 -1925 -2058 -30 -221 -13 -546 45
-884 26 -153 87 -429 105 -473 4 -11 -42 -58 -167 -170 -216 -192 -536 -510
-655 -650 -452 -531 -742 -1146 -893 -1893 -16 -82 -32 -151 -35 -154 -7 -7
-212 155 -340 269 -361 323 -660 741 -854 1198 -122 285 -260 758 -325 1106
-218 1177 -47 2374 476 3338 358 659 917 1264 1580 1710 593 398 1226 662
1938 807 315 64 615 98 995 113 39 2 86 4 105 5 19 1 132 -3 250 -8z m5807
-1000 l393 0 0 -2563 0 -2564 548 -6 c301 -4 799 -7 1106 -7 l559 0 -6 -452
c-4 -248 -7 -547 -7 -665 l0 -213 -1921 0 c-1533 0 -1920 -3 -1916 -12 3 -7
24 -56 47 -108 161 -366 276 -790 324 -1195 33 -280 46 -635 23 -635 -6 0 -20
8 -31 19 -35 31 -280 191 -461 301 -360 219 -625 364 -1440 790 l-121 62 -44
86 c-59 114 -202 326 -290 432 -431 517 -959 824 -1585 921 -200 32 -540 32
-741 1 -1062 -165 -1913 -1028 -2114 -2144 -90 -501 -14 -1116 196 -1581 137
-303 289 -522 534 -767 283 -284 528 -449 855 -575 474 -183 1054 -217 1550
-90 77 20 152 39 166 42 21 4 60 -15 180 -88 364 -219 692 -456 1014 -735 135
-117 362 -340 355 -348 -24 -22 -260 -156 -400 -225 -429 -212 -835 -333
-1345 -403 -153 -20 -209 -23 -565 -23 -404 0 -472 4 -739 46 -556 87 -1078
285 -1541 584 -118 76 -331 234 -430 319 -36 31 -68 55 -72 53 -6 -2 -193
-219 -428 -497 -58 -68 -148 -173 -201 -234 -137 -159 -229 -270 -229 -277 0
-25 277 -491 435 -730 311 -472 575 -801 924 -1149 288 -287 455 -427 726
-608 431 -288 876 -469 1335 -543 161 -26 499 -36 665 -20 561 54 1091 276
1555 650 91 74 295 269 376 361 346 393 591 888 658 1335 22 145 16 483 -12
627 -60 315 -250 698 -464 934 -193 213 -497 465 -961 797 -395 283 -813 525
-1452 842 -614 304 -1159 545 -2140 943 l-220 90 -12 53 c-156 674 -77 1363
219 1919 280 526 752 945 1268 1124 l103 36 1481 -739 c1550 -775 2036 -1024
2442 -1251 500 -282 749 -440 1089 -697 727 -548 1157 -1035 1450 -1639 243
-500 368 -1024 412 -1723 14 -237 15 -298 4 -455 -55 -798 -237 -1468 -582
-2146 -426 -838 -1076 -1564 -1874 -2096 -738 -491 -1573 -803 -2435 -908
-261 -32 -394 -40 -680 -40 -560 0 -1022 68 -1595 234 -1039 301 -1927 782
-2712 1469 -207 181 -577 559 -763 781 -30 36 -57 67 -61 70 -39 34 -365 476
-498 675 -41 61 -81 118 -90 127 -12 13 -40 20 -95 24 l-78 7 6 -354 c3 -195
8 -581 11 -859 3 -278 8 -637 11 -799 l5 -294 -708 7 c-389 3 -828 9 -974 12
l-266 6 -6 2446 c-4 1345 -7 2897 -7 3449 l0 1003 988 0 987 0 3 -483 c2 -265
7 -743 12 -1062 6 -319 10 -696 10 -838 0 -142 4 -257 9 -255 4 2 96 109 202
238 107 129 341 411 519 625 178 215 412 496 519 625 107 129 201 243 210 253
14 17 13 23 -13 70 -265 488 -415 924 -501 1457 -76 474 -80 1047 -9 1488 65
406 187 796 367 1172 452 945 1290 1748 2237 2145 827 345 1858 407 2765 165
590 -158 1132 -447 1621 -865 156 -132 375 -350 504 -500 90 -105 283 -358
318 -417 9 -16 21 -28 26 -28 5 0 6 899 2 2363 -4 1299 -4 2650 0 3001 l7 639
555 -6 c305 -4 732 -7 949 -7z"/>
</g>
</svg>
